<?xml version="1.0" encoding="UTF-8" standalone="no"?>
<svg width="56px" height="56px" viewBox="0 0 56 56" version="1.1" xmlns="http://www.w3.org/2000/svg" xmlns:xlink="http://www.w3.org/1999/xlink" xmlns:sketch="http://www.bohemiancoding.com/sketch/ns">
    <!-- Generator: Sketch 3.1.1 (8761) - http://www.bohemiancoding.com/sketch -->
    <title>Assets/spritesheet-login</title>
    <desc>Created with Sketch.</desc>
    <defs></defs>
    <g id="Assets" stroke="none" stroke-width="1" fill="none" fill-rule="evenodd" sketch:type="MSPage">
        <path d="M12,38.6666667 L12,35.9958262 C12,33.7965212 13.790861,32 16,32 C18.2046438,32 20,33.7889923 20,35.9958262 L20,38.6666667 L20.9975267,38.6666667 C21.544239,38.6666667 22,39.1138582 22,39.6654968 L22,47.0011698 C22,47.5498339 21.5511774,48 20.9975267,48 L11.0024733,48 C10.455761,48 10,47.5528085 10,47.0011698 L10,39.6654968 C10,39.1168327 10.4488226,38.6666667 11.0024733,38.6666667 L12,38.6666667 Z M18,38.6666667 L18,35.9958262 C18,34.8959272 17.1024408,34 16,34 C14.898145,34 14,34.8983756 14,35.9958262 L14,38.6666667 L18,38.6666667 Z" id="Rectangle-56" fill="#5B7183" sketch:type="MSShapeGroup"></path>
        <path d="M17.2240403,17.5843798 C18.6750388,16.7589608 19.6959137,14.7934066 19.6959137,12.5 C19.6959137,9.46243388 17.9050527,8 15.6959137,8 C13.4867747,8 11.6959137,9.46243388 11.6959137,12.5 C11.6959137,14.7934066 12.7167885,16.7589608 14.1677871,17.5843798 L14.0123199,18.0507812 C13.8375736,18.5750203 13.2525605,19 12.6865448,19 C11.0348648,19 9.19638833,20.2488133 8.57896459,21.7923727 L8.06741116,23.0712563 C7.86223876,23.5841873 8.14054453,24 8.69678533,24 L22.695042,24 C23.2478082,24 23.5322453,23.590829 23.3244162,23.0712563 L22.8128628,21.7923727 C22.1959888,20.2501878 20.3528441,19 18.7052826,19 C18.1478235,19 17.556868,18.5828629 17.3795074,18.0507812 L17.2240403,17.5843798 Z" id="Oval-3" fill="#5B7183" sketch:type="MSShapeGroup"></path>
        <path d="M36,38.6666667 L36,35.9958262 C36,33.7965212 37.790861,32 40,32 C42.2046438,32 44,33.7889923 44,35.9958262 L44,38.6666667 L44.9975267,38.6666667 C45.544239,38.6666667 46,39.1138582 46,39.6654968 L46,47.0011698 C46,47.5498339 45.5511774,48 44.9975267,48 L35.0024733,48 C34.455761,48 34,47.5528085 34,47.0011698 L34,39.6654968 C34,39.1168327 34.4488226,38.6666667 35.0024733,38.6666667 L36,38.6666667 Z M42,38.6666667 L42,35.9958262 C42,34.8959272 41.1024408,34 40,34 C38.898145,34 38,34.8983756 38,35.9958262 L38,38.6666667 L42,38.6666667 Z" id="Rectangle-57" fill="#1F3340" sketch:type="MSShapeGroup"></path>
        <path d="M41.2240403,17.5843798 C42.6750388,16.7589608 43.6959137,14.7934066 43.6959137,12.5 C43.6959137,9.46243388 41.9050527,8 39.6959137,8 C37.4867747,8 35.6959137,9.46243388 35.6959137,12.5 C35.6959137,14.7934066 36.7167885,16.7589608 38.1677871,17.5843798 L38.0123199,18.0507812 C37.8375736,18.5750203 37.2525605,19 36.6865448,19 C35.0348648,19 33.1963883,20.2488133 32.5789646,21.7923727 L32.0674112,23.0712563 C31.8622388,23.5841873 32.1405445,24 32.6967853,24 L46.695042,24 C47.2478082,24 47.5322453,23.590829 47.3244162,23.0712563 L46.8128628,21.7923727 C46.1959888,20.2501878 44.3528441,19 42.7052826,19 C42.1478235,19 41.556868,18.5828629 41.3795074,18.0507812 L41.2240403,17.5843798 Z" id="Oval-4" fill="#1F3340" sketch:type="MSShapeGroup"></path>
    </g>
</svg>