<?xml version="1.0" encoding="UTF-8" standalone="no"?>
<svg width="16px" height="500px" viewBox="0 0 16 500" version="1.1" xmlns="http://www.w3.org/2000/svg" xmlns:xlink="http://www.w3.org/1999/xlink" xmlns:sketch="http://www.bohemiancoding.com/sketch/ns">
    <!-- Generator: Sketch 3.1.1 (8761) - http://www.bohemiancoding.com/sketch -->
    <title>Assets/spritesheet-login</title>
    <desc>Created with Sketch.</desc>
    <defs></defs>
    <g id="Assets" stroke="none" stroke-width="1" fill="none" fill-rule="evenodd" sketch:type="MSPage">
        <g id="user-gray" sketch:type="MSLayerGroup" transform="translate(0.000000, 0.000000)" fill="#5B7183">
            <path d="M9.52812659,9.58437978 C10.9791252,8.75896075 12,6.79340657 12,4.5 C12,1.46243388 10.209139,0 8,0 C5.790861,0 4,1.46243388 4,4.5 C4,6.79340657 5.02087484,8.75896075 6.47187341,9.58437978 L6.31640625,10.0507812 C6.1416599,10.5750203 5.55664682,11 4.9906311,11 C3.33895115,11 1.50047466,12.2488133 0.883050919,13.7923727 L0.371497482,15.0712563 C0.166325088,15.5841873 0.444630861,16 1.00087166,16 L14.9991283,16 C15.5518945,16 15.8363316,15.590829 15.6285025,15.0712563 L15.1169491,13.7923727 C14.5000751,12.2501878 12.6569304,11 11.0093689,11 C10.4519098,11 9.86095428,10.5828629 9.68359375,10.0507812 L9.52812659,9.58437978 Z" id="Oval-2" sketch:type="MSShapeGroup"></path>
        </g>
        <g id="user-black" sketch:type="MSLayerGroup" transform="translate(0.000000, 50.000000)" fill="#1F3340">
            <path d="M9.52812659,9.58437978 C10.9791252,8.75896075 12,6.79340657 12,4.5 C12,1.46243388 10.209139,0 8,0 C5.790861,0 4,1.46243388 4,4.5 C4,6.79340657 5.02087484,8.75896075 6.47187341,9.58437978 L6.31640625,10.0507812 C6.1416599,10.5750203 5.55664682,11 4.9906311,11 C3.33895115,11 1.50047466,12.2488133 0.883050919,13.7923727 L0.371497482,15.0712563 C0.166325088,15.5841873 0.444630861,16 1.00087166,16 L14.9991283,16 C15.5518945,16 15.8363316,15.590829 15.6285025,15.0712563 L15.1169491,13.7923727 C14.5000751,12.2501878 12.6569304,11 11.0093689,11 C10.4519098,11 9.86095428,10.5828629 9.68359375,10.0507812 L9.52812659,9.58437978 Z" id="Oval-2" sketch:type="MSShapeGroup"></path>
        </g>
        <g id="lock-gray" sketch:type="MSLayerGroup" transform="translate(2.000000, 100.000000)" fill="#5B7183">
            <path d="M2,6.66666667 L2,3.99582624 C2,1.79652125 3.790861,0 6,0 C8.20464385,0 10,1.78899235 10,3.99582624 L10,6.66666667 L10.9975267,6.66666667 C11.544239,6.66666667 12,7.11385816 12,7.66549683 L12,15.0011698 C12,15.5498339 11.5511774,16 10.9975267,16 L1.00247329,16 C0.455760956,16 0,15.5528085 0,15.0011698 L0,7.66549683 C0,7.11683273 0.448822582,6.66666667 1.00247329,6.66666667 L2,6.66666667 Z M8,6.66666667 L8,3.99582624 C8,2.89592715 7.10244084,2 6,2 C4.89814503,2 4,2.89837558 4,3.99582624 L4,6.66666667 L8,6.66666667 Z" sketch:type="MSShapeGroup"></path>
        </g>
        <g id="lock-black" sketch:type="MSLayerGroup" transform="translate(2.000000, 150.000000)" fill="#1F3340">
            <path d="M2,6.66666667 L2,3.99582624 C2,1.79652125 3.790861,0 6,0 C8.20464385,0 10,1.78899235 10,3.99582624 L10,6.66666667 L10.9975267,6.66666667 C11.544239,6.66666667 12,7.11385816 12,7.66549683 L12,15.0011698 C12,15.5498339 11.5511774,16 10.9975267,16 L1.00247329,16 C0.455760956,16 0,15.5528085 0,15.0011698 L0,7.66549683 C0,7.11683273 0.448822582,6.66666667 1.00247329,6.66666667 L2,6.66666667 Z M8,6.66666667 L8,3.99582624 C8,2.89592715 7.10244084,2 6,2 C4.89814503,2 4,2.89837558 4,3.99582624 L4,6.66666667 L8,6.66666667 Z" id="lock-gray" sketch:type="MSShapeGroup"></path>
        </g>
        
        <g id="email-gray" sketch:type="MSLayerGroup" transform="translate(0.000000, 204.000000)" fill="#5B7183">
            <path d="M0.0921242762,0.626467736 C0.0329955223,0.753545551 0,0.89519355 0,1.04463959 L0,10.0534846 C0,10.6033269 0.444630861,11.0490621 1.00087166,11.0490621 L14.9991283,11.0490621 C15.5518945,11.0490621 16,10.6042251 16,10.0534846 L16,1.04463959 C16,0.895183795 15.967149,0.753419829 15.9081349,0.626208531 L8,8.53434346 L0.0921242762,0.626467736 L0.0921242762,0.626467736 Z M0.848051959,2.7533531e-14 L7.91911977,7.07106781 L14.9901876,2.93098879e-14 L0.848051959,2.7533531e-14 Z" id="Rectangle-119" sketch:type="MSShapeGroup"></path>
        </g>
        <g id="email-black" sketch:type="MSLayerGroup" transform="translate(0.000000, 254.000000)" fill="#1F3340">
            <path d="M0.0921242762,0.626467736 C0.0329955223,0.753545551 0,0.89519355 0,1.04463959 L0,10.0534846 C0,10.6033269 0.444630861,11.0490621 1.00087166,11.0490621 L14.9991283,11.0490621 C15.5518945,11.0490621 16,10.6042251 16,10.0534846 L16,1.04463959 C16,0.895183795 15.967149,0.753419829 15.9081349,0.626208531 L8,8.53434346 L0.0921242762,0.626467736 L0.0921242762,0.626467736 Z M0.848051959,2.7533531e-14 L7.91911977,7.07106781 L14.9901876,2.93098879e-14 L0.848051959,2.7533531e-14 Z" id="Rectangle-119" sketch:type="MSShapeGroup"></path>
        </g>
        <g id="answer-gray" sketch:type="MSLayerGroup" transform="translate(0.000000, 302.000000)" fill="#5B7183">
            <path d="M1.00087166,0 C0.448105505,0 0,0.444836974 0,0.995577499 L0,10.0044225 C0,10.5542648 0.444630861,11 1.00087166,11 L14.9991283,11 C15.5518945,11 16,10.555163 16,10.0044225 L16,0.995577499 C16,0.445735229 15.5553691,0 14.9991283,0 L1.00087166,0 Z M14,16 L13,11 L8,11 L14,16 Z" id="Rectangle-121" sketch:type="MSShapeGroup"></path>
        </g>
        <g id="answer-black" sketch:type="MSLayerGroup" transform="translate(0.000000, 352.000000)" fill="#1F3340">
            <path d="M1.00087166,0 C0.448105505,0 0,0.444836974 0,0.995577499 L0,10.0044225 C0,10.5542648 0.444630861,11 1.00087166,11 L14.9991283,11 C15.5518945,11 16,10.555163 16,10.0044225 L16,0.995577499 C16,0.445735229 15.5553691,0 14.9991283,0 L1.00087166,0 Z M14,16 L13,11 L8,11 L14,16 Z" id="Rectangle-121" sketch:type="MSShapeGroup"></path>
        </g>
        <g id="key-gray" sketch:type="MSLayerGroup" transform="translate(3.000000, 400.000000)" fill="#5B7183">
            <path d="M6.5,9.77109886 L6.5,11 L9,11 L9,13 L6.5,13 L6.5,13 L6.5,14 L6.5,14 L9,14 L9,16 L5.75,16 L3.5,16 L3.5,9.77109886 C1.47144652,9.13396704 0,7.23882089 0,5 C0,2.23857625 2.23857625,0 5,0 C7.76142375,0 10,2.23857625 10,5 C10,7.23882089 8.52855348,9.13396704 6.5,9.77109886 L6.5,9.77109886 Z M3,5 C3,3.8954305 3.8954305,3 5,3 C6.1045695,3 7,3.8954305 7,5 C7,6.1045695 6.1045695,7 5,7 C3.8954305,7 3,6.1045695 3,5 Z" id="Rectangle-122" sketch:type="MSShapeGroup"></path>
        </g>
        
        <g id="key-black" sketch:type="MSLayerGroup" transform="translate(3.000000, 450.000000)" fill="#1F3340">
            <path d="M6.5,9.77109886 L6.5,11 L9,11 L9,13 L6.5,13 L6.5,13 L6.5,14 L6.5,14 L9,14 L9,16 L5.75,16 L3.5,16 L3.5,9.77109886 C1.47144652,9.13396704 0,7.23882089 0,5 C0,2.23857625 2.23857625,0 5,0 C7.76142375,0 10,2.23857625 10,5 C10,7.23882089 8.52855348,9.13396704 6.5,9.77109886 L6.5,9.77109886 Z M3,5 C3,3.8954305 3.8954305,3 5,3 C6.1045695,3 7,3.8954305 7,5 C7,6.1045695 6.1045695,7 5,7 C3.8954305,7 3,6.1045695 3,5 Z" id="Rectangle-122" sketch:type="MSShapeGroup"></path>
        </g>
        
        
        
    </g>
</svg>